<svg width="64" height="64" viewBox="0 0 64 64" fill="none" xmlns="http://www.w3.org/2000/svg">
<g clip-path="url(#clip0_2_24)">
<path d="M32 9.33333C36.1111 9.33333 39.9028 10.3472 43.375 12.375C46.8472 14.4028 49.5972 17.1528 51.625 20.625C53.6528 24.0972 54.6667 27.8889 54.6667 32C54.6667 36.1111 53.6528 39.9028 51.625 43.375C49.5972 46.8472 46.8472 49.5972 43.375 51.625C39.9028 53.6528 36.1111 54.6667 32 54.6667C27.8889 54.6667 24.0972 53.6528 20.625 51.625C17.1528 49.5972 14.4028 46.8472 12.375 43.375C10.3472 39.9028 9.33333 36.1111 9.33333 32C9.33333 27.8889 10.3472 24.0972 12.375 20.625C14.4028 17.1528 17.1528 14.4028 20.625 12.375C24.0972 10.3472 27.8889 9.33333 32 9.33333ZM-1.90735e-06 32C-1.90735e-06 37.8056 1.43055 43.1597 4.29166 48.0625C7.15278 52.9653 11.0347 56.8472 15.9375 59.7083C20.8403 62.5694 26.1944 64 32 64C37.8056 64 43.1597 62.5694 48.0625 59.7083C52.9653 56.8472 56.8472 52.9653 59.7083 48.0625C62.5694 43.1597 64 37.8056 64 32C64 26.1944 62.5694 20.8403 59.7083 15.9375C56.8472 11.0347 52.9653 7.15278 48.0625 4.29167C43.1597 1.43056 37.8056 0 32 0C26.1944 0 20.8403 1.43056 15.9375 4.29167C11.0347 7.15278 7.15278 11.0347 4.29166 15.9375C1.43055 20.8403 -1.90735e-06 26.1944 -1.90735e-06 32Z" fill="#B0E73D"/>
</g>
<defs>
<clipPath id="clip0_2_24">
<rect width="64" height="64" fill="white"/>
</clipPath>
</defs>
</svg>
