<svg width="64" height="64" viewBox="0 0 64 64" fill="none" xmlns="http://www.w3.org/2000/svg">
<path d="M14.308 3.956C20.02 9.672 25.742 15.389 31.448 21.106C37.164 15.392 42.88 9.675 48.598 3.956C55.212 -2.655 65.46 7.598 58.849 14.209C53.135 19.92 47.416 25.64 41.709 31.349C47.42 37.063 53.138 42.782 58.849 48.499C65.46 55.108 55.207 65.358 48.598 58.751C42.884 53.034 37.168 47.318 31.448 41.601C25.732 47.318 20.02 53.032 14.308 58.751C7.69599 65.359 -2.55301 55.108 4.05299 48.5C9.76999 42.783 15.486 37.069 21.203 31.35C15.485 25.634 9.76899 19.917 4.05299 14.2C-2.55301 7.591 7.69599 -2.662 14.308 3.949" fill="#FE5A5A"/>
</svg>
